<?xml version="1.0" encoding="UTF-8"?>
<svg width="452px" height="532px" viewBox="0 0 452 532" version="1.1" xmlns="http://www.w3.org/2000/svg" xmlns:xlink="http://www.w3.org/1999/xlink">
    <title>Slice</title>
    <g id="Page-1" stroke="none" stroke-width="1" fill="none" fill-rule="evenodd">
        <rect id="Rectangle" stroke="#FFFFFF" fill="#000000" x="72.5" y="100.5" width="312" height="269"></rect>
        <rect id="Rectangle" fill="#F9A61A" x="102" y="187" width="121" height="121" rx="43"></rect>
        <rect id="Rectangle" stroke="#FFFFFF" stroke-width="2" x="105" y="190" width="115" height="115" rx="41"></rect>
        <polygon id="Path" fill="#FFFFFF" points="120.274241 224.866372 120.274241 271.247453 128.741963 275.839242 137.528171 271.247453 137.528171 252.239008 153.411587 260.366821 153.411587 291.572096 161.956469 295.916542 169.454581 291.572096 169.454581 260.851506 185.638084 252.239008 185.638084 271.247453 194.488559 275.839242 202.424996 271.247453 202.424996 224.866372 161.956469 245.4187"></polygon>
        <ellipse id="Oval" stroke="#FFFFFF" stroke-width="3" cx="161" cy="218.5" rx="7.5" ry="14"></ellipse>
        <ellipse id="Oval" stroke="#FFFFFF" stroke-width="4" cx="161.5" cy="218.5" rx="17.5" ry="16.5"></ellipse>
        <line x1="161.5" y1="200" x2="161.349619" y2="237" id="Path-2" stroke="#FFFFFF" stroke-width="3"></line>
        <line x1="144.013549" y1="218.5" x2="178.808157" y2="218.5" id="Path-3" stroke="#FFFFFF" stroke-width="2"></line>
        <rect id="Rectangle" fill="#FFE664" x="54" y="487" width="40" height="10"></rect>
        <rect id="Rectangle-Copy" fill="#FFE664" x="64" y="477" width="30" height="10"></rect>
        <rect id="Rectangle-Copy-2" fill="#FFE664" x="84" y="467" width="10" height="10"></rect>
        <rect id="Rectangle-Copy-5" fill="#453FC9" transform="translate(74.000000, 462.000000) rotate(180.000000) translate(-74.000000, -462.000000) " x="54" y="457" width="40" height="10"></rect>
        <rect id="Rectangle-Copy-4" fill="#453FC9" transform="translate(69.000000, 472.000000) rotate(180.000000) translate(-69.000000, -472.000000) " x="54" y="467" width="30" height="10"></rect>
        <rect id="Rectangle-Copy-3" fill="#453FC9" transform="translate(59.000000, 482.000000) rotate(180.000000) translate(-59.000000, -482.000000) " x="54" y="477" width="10" height="10"></rect>
    </g>
</svg>